<svg xmlns="http://www.w3.org/2000/svg" viewBox="0 0 960 420" width="960" height="420" font-family="-apple-system,BlinkMacSystemFont,'Segoe UI',Helvetica,Arial,sans-serif" role="img" aria-label="Morgan, 35, owes $18,000 on a 25% APR card. With current habits the card is paid off in month 135; the adaptive plan pays it off in month 16, saves $32,516 in interest and adds $141,669 at retirement.">
  <defs>
    <linearGradient id="bg" x1="0" y1="0" x2="1" y2="1">
      <stop offset="0" stop-color="#020617"/><stop offset="0.55" stop-color="#0B1B3F"/><stop offset="1" stop-color="#2E1065"/>
    </linearGradient>
    <radialGradient id="aura" cx="0.25" cy="0.9" r="0.6">
      <stop offset="0" stop-color="#0EA5E9" stop-opacity="0.24"/><stop offset="1" stop-color="#0EA5E9" stop-opacity="0"/>
    </radialGradient>
    <radialGradient id="aura2" cx="0.9" cy="0.05" r="0.55">
      <stop offset="0" stop-color="#EC4899" stop-opacity="0.22"/><stop offset="1" stop-color="#EC4899" stop-opacity="0"/>
    </radialGradient>
    <linearGradient id="rainbow" x1="0" y1="0" x2="1" y2="0">
      <stop offset="0" stop-color="#22D3EE"/><stop offset="0.35" stop-color="#A78BFA"/>
      <stop offset="0.7" stop-color="#F472B6"/><stop offset="1" stop-color="#FBBF24"/>
    </linearGradient>
    <linearGradient id="shimmer" x1="0" y1="0" x2="1" y2="0" gradientUnits="objectBoundingBox">
      <stop offset="0" stop-color="#22D3EE"/><stop offset="0.5" stop-color="#A78BFA"/><stop offset="1" stop-color="#F472B6"/>
      <animateTransform attributeName="gradientTransform" type="translate" dur="6s" repeatCount="indefinite" values="-0.3 0;0.3 0;-0.3 0"/>
    </linearGradient>
    <linearGradient id="fillA" x1="0" y1="0" x2="0" y2="1">
      <stop offset="0" stop-color="#22D3EE" stop-opacity="0.35"/><stop offset="1" stop-color="#22D3EE" stop-opacity="0"/>
    </linearGradient>
    <linearGradient id="fillC" x1="0" y1="0" x2="0" y2="1">
      <stop offset="0" stop-color="#F97316" stop-opacity="0.22"/><stop offset="1" stop-color="#F97316" stop-opacity="0"/>
    </linearGradient>
    <filter id="glow" x="-50%" y="-50%" width="200%" height="200%">
      <feGaussianBlur stdDeviation="4" result="b"/><feMerge><feMergeNode in="b"/><feMergeNode in="SourceGraphic"/></feMerge>
    </filter>
    <clipPath id="sweep">
      <rect x="66" y="150" height="220" width="0">
        <animate attributeName="width" dur="14s" repeatCount="indefinite"
          keyTimes="0;0.06;0.58;0.93;1" values="0;0;528;528;528"/>
      </rect>
    </clipPath>
  </defs>

  <rect width="960" height="420" rx="22" fill="url(#bg)"/>
  <rect width="960" height="420" rx="22" fill="url(#aura)">
    <animate attributeName="opacity" dur="7s" repeatCount="indefinite" values="0.6;1;0.6"/>
  </rect>
  <rect width="960" height="420" rx="22" fill="url(#aura2)">
    <animate attributeName="opacity" dur="9s" repeatCount="indefinite" values="1;0.5;1"/>
  </rect>
  <rect x="40" y="0" width="880" height="4" rx="2" fill="url(#rainbow)"/>

  <text x="40" y="52" font-size="13" font-weight="700" letter-spacing="3" fill="url(#rainbow)">TARGET DATE FUND 2.0</text>
  <text x="40" y="92" font-size="32" font-weight="800" fill="#F8FAFC">Same age. Same fund. <tspan fill="url(#shimmer)">Different life.</tspan></text>
  <text x="40" y="122" font-size="15" fill="#94A3B8">Morgan, 35, retiring at 67, owes <tspan fill="#FDBA74" font-weight="600">$18,000 on a 25% APR card</tspan>. A target-date fund never asks.</text>

  <g><line x1="70" x2="590" y1="350.0" y2="350.0" stroke="#1E293B" stroke-dasharray="2 5"/><text x="60" y="354.0" font-size="11" fill="#64748B" text-anchor="end">$0</text><line x1="70" x2="590" y1="290.0" y2="290.0" stroke="#1E293B" stroke-dasharray="2 5"/><text x="60" y="294.0" font-size="11" fill="#64748B" text-anchor="end">$6k</text><line x1="70" x2="590" y1="230.0" y2="230.0" stroke="#1E293B" stroke-dasharray="2 5"/><text x="60" y="234.0" font-size="11" fill="#64748B" text-anchor="end">$12k</text><line x1="70" x2="590" y1="170.0" y2="170.0" stroke="#1E293B" stroke-dasharray="2 5"/><text x="60" y="174.0" font-size="11" fill="#64748B" text-anchor="end">$18k</text><text x="70.0" y="370" font-size="11" fill="#64748B" text-anchor="middle">today</text><text x="200.0" y="370" font-size="11" fill="#64748B" text-anchor="middle">yr 3</text><text x="330.0" y="370" font-size="11" fill="#64748B" text-anchor="middle">yr 6</text><text x="460.0" y="370" font-size="11" fill="#64748B" text-anchor="middle">yr 9</text><text x="590.0" y="370" font-size="11" fill="#64748B" text-anchor="middle">yr 12</text></g>

  <g clip-path="url(#sweep)">
    <path d="M70.0,170.0 L73.6,170.2 L77.2,170.5 L80.8,170.8 L84.4,171.0 L88.1,171.3 L91.7,171.6 L95.3,171.9 L98.9,172.2 L102.5,172.4 L106.1,172.7 L109.7,173.1 L113.3,173.4 L116.9,173.7 L120.6,174.0 L124.2,174.3 L127.8,174.7 L131.4,175.0 L135.0,175.4 L138.6,175.8 L142.2,176.1 L145.8,176.5 L149.4,176.9 L153.1,177.3 L156.7,177.7 L160.3,178.1 L163.9,178.5 L167.5,178.9 L171.1,179.4 L174.7,179.8 L178.3,180.3 L181.9,180.7 L185.6,181.2 L189.2,181.7 L192.8,182.2 L196.4,182.7 L200.0,183.2 L203.6,183.7 L207.2,184.3 L210.8,184.8 L214.4,185.4 L218.1,185.9 L221.7,186.5 L225.3,187.1 L228.9,187.7 L232.5,188.3 L236.1,189.0 L239.7,189.6 L243.3,190.3 L246.9,191.0 L250.6,191.6 L254.2,192.3 L257.8,193.1 L261.4,193.8 L265.0,194.5 L268.6,195.3 L272.2,196.1 L275.8,196.9 L279.4,197.7 L283.1,198.5 L286.7,199.3 L290.3,200.2 L293.9,201.1 L297.5,202.0 L301.1,202.9 L304.7,203.8 L308.3,204.8 L311.9,205.8 L315.6,206.8 L319.2,207.8 L322.8,208.8 L326.4,209.9 L330.0,211.0 L333.6,212.1 L337.2,213.2 L340.8,214.3 L344.4,215.5 L348.1,216.7 L351.7,217.9 L355.3,219.2 L358.9,220.5 L362.5,221.8 L366.1,223.1 L369.7,224.4 L373.3,225.8 L376.9,227.2 L380.6,228.7 L384.2,230.2 L387.8,231.7 L391.4,233.2 L395.0,234.8 L398.6,236.4 L402.2,238.0 L405.8,239.7 L409.4,241.4 L413.1,243.1 L416.7,244.9 L420.3,246.7 L423.9,248.5 L427.5,250.4 L431.1,252.3 L434.7,254.3 L438.3,256.3 L441.9,258.4 L445.6,260.4 L449.2,262.6 L452.8,264.8 L456.4,267.0 L460.0,269.3 L463.6,271.6 L467.2,273.9 L470.8,276.4 L474.4,278.8 L478.1,281.3 L481.7,283.9 L485.3,286.5 L488.9,289.2 L492.5,291.9 L496.1,294.7 L499.7,297.6 L503.3,300.5 L506.9,303.5 L510.6,306.5 L514.2,309.6 L517.8,312.7 L521.4,316.0 L525.0,319.2 L528.6,322.6 L532.2,326.0 L535.8,329.5 L539.4,333.1 L543.1,336.8 L546.7,340.5 L550.3,344.3 L553.9,348.2 L557.5,350.0 L561.1,350.0 L564.7,350.0 L568.3,350.0 L571.9,350.0 L575.6,350.0 L579.2,350.0 L582.8,350.0 L586.4,350.0 L590.0,350.0 L590.0,350 L70,350 Z" fill="url(#fillC)"/>
    <path d="M70.0,170.0 L73.6,179.9 L77.2,190.0 L80.8,200.3 L84.4,210.8 L88.1,221.5 L91.7,232.5 L95.3,243.7 L98.9,255.1 L102.5,266.8 L106.1,278.7 L109.7,290.8 L113.3,303.2 L116.9,315.9 L120.6,328.8 L124.2,342.0 L127.8,350.0 L131.4,350.0 L135.0,350.0 L138.6,350.0 L142.2,350.0 L145.8,350.0 L149.4,350.0 L153.1,350.0 L156.7,350.0 L160.3,350.0 L163.9,350.0 L167.5,350.0 L171.1,350.0 L174.7,350.0 L178.3,350.0 L181.9,350.0 L185.6,350.0 L189.2,350.0 L192.8,350.0 L196.4,350.0 L200.0,350.0 L203.6,350.0 L207.2,350.0 L210.8,350.0 L214.4,350.0 L218.1,350.0 L221.7,350.0 L225.3,350.0 L228.9,350.0 L232.5,350.0 L236.1,350.0 L239.7,350.0 L243.3,350.0 L246.9,350.0 L250.6,350.0 L254.2,350.0 L257.8,350.0 L261.4,350.0 L265.0,350.0 L268.6,350.0 L272.2,350.0 L275.8,350.0 L279.4,350.0 L283.1,350.0 L286.7,350.0 L290.3,350.0 L293.9,350.0 L297.5,350.0 L301.1,350.0 L304.7,350.0 L308.3,350.0 L311.9,350.0 L315.6,350.0 L319.2,350.0 L322.8,350.0 L326.4,350.0 L330.0,350.0 L333.6,350.0 L337.2,350.0 L340.8,350.0 L344.4,350.0 L348.1,350.0 L351.7,350.0 L355.3,350.0 L358.9,350.0 L362.5,350.0 L366.1,350.0 L369.7,350.0 L373.3,350.0 L376.9,350.0 L380.6,350.0 L384.2,350.0 L387.8,350.0 L391.4,350.0 L395.0,350.0 L398.6,350.0 L402.2,350.0 L405.8,350.0 L409.4,350.0 L413.1,350.0 L416.7,350.0 L420.3,350.0 L423.9,350.0 L427.5,350.0 L431.1,350.0 L434.7,350.0 L438.3,350.0 L441.9,350.0 L445.6,350.0 L449.2,350.0 L452.8,350.0 L456.4,350.0 L460.0,350.0 L463.6,350.0 L467.2,350.0 L470.8,350.0 L474.4,350.0 L478.1,350.0 L481.7,350.0 L485.3,350.0 L488.9,350.0 L492.5,350.0 L496.1,350.0 L499.7,350.0 L503.3,350.0 L506.9,350.0 L510.6,350.0 L514.2,350.0 L517.8,350.0 L521.4,350.0 L525.0,350.0 L528.6,350.0 L532.2,350.0 L535.8,350.0 L539.4,350.0 L543.1,350.0 L546.7,350.0 L550.3,350.0 L553.9,350.0 L557.5,350.0 L561.1,350.0 L564.7,350.0 L568.3,350.0 L571.9,350.0 L575.6,350.0 L579.2,350.0 L582.8,350.0 L586.4,350.0 L590.0,350.0 L590.0,350 L70,350 Z" fill="url(#fillA)"/>
    <path d="M70.0,170.0 L73.6,170.2 L77.2,170.5 L80.8,170.8 L84.4,171.0 L88.1,171.3 L91.7,171.6 L95.3,171.9 L98.9,172.2 L102.5,172.4 L106.1,172.7 L109.7,173.1 L113.3,173.4 L116.9,173.7 L120.6,174.0 L124.2,174.3 L127.8,174.7 L131.4,175.0 L135.0,175.4 L138.6,175.8 L142.2,176.1 L145.8,176.5 L149.4,176.9 L153.1,177.3 L156.7,177.7 L160.3,178.1 L163.9,178.5 L167.5,178.9 L171.1,179.4 L174.7,179.8 L178.3,180.3 L181.9,180.7 L185.6,181.2 L189.2,181.7 L192.8,182.2 L196.4,182.7 L200.0,183.2 L203.6,183.7 L207.2,184.3 L210.8,184.8 L214.4,185.4 L218.1,185.9 L221.7,186.5 L225.3,187.1 L228.9,187.7 L232.5,188.3 L236.1,189.0 L239.7,189.6 L243.3,190.3 L246.9,191.0 L250.6,191.6 L254.2,192.3 L257.8,193.1 L261.4,193.8 L265.0,194.5 L268.6,195.3 L272.2,196.1 L275.8,196.9 L279.4,197.7 L283.1,198.5 L286.7,199.3 L290.3,200.2 L293.9,201.1 L297.5,202.0 L301.1,202.9 L304.7,203.8 L308.3,204.8 L311.9,205.8 L315.6,206.8 L319.2,207.8 L322.8,208.8 L326.4,209.9 L330.0,211.0 L333.6,212.1 L337.2,213.2 L340.8,214.3 L344.4,215.5 L348.1,216.7 L351.7,217.9 L355.3,219.2 L358.9,220.5 L362.5,221.8 L366.1,223.1 L369.7,224.4 L373.3,225.8 L376.9,227.2 L380.6,228.7 L384.2,230.2 L387.8,231.7 L391.4,233.2 L395.0,234.8 L398.6,236.4 L402.2,238.0 L405.8,239.7 L409.4,241.4 L413.1,243.1 L416.7,244.9 L420.3,246.7 L423.9,248.5 L427.5,250.4 L431.1,252.3 L434.7,254.3 L438.3,256.3 L441.9,258.4 L445.6,260.4 L449.2,262.6 L452.8,264.8 L456.4,267.0 L460.0,269.3 L463.6,271.6 L467.2,273.9 L470.8,276.4 L474.4,278.8 L478.1,281.3 L481.7,283.9 L485.3,286.5 L488.9,289.2 L492.5,291.9 L496.1,294.7 L499.7,297.6 L503.3,300.5 L506.9,303.5 L510.6,306.5 L514.2,309.6 L517.8,312.7 L521.4,316.0 L525.0,319.2 L528.6,322.6 L532.2,326.0 L535.8,329.5 L539.4,333.1 L543.1,336.8 L546.7,340.5 L550.3,344.3 L553.9,348.2 L557.5,350.0 L561.1,350.0 L564.7,350.0 L568.3,350.0 L571.9,350.0 L575.6,350.0 L579.2,350.0 L582.8,350.0 L586.4,350.0 L590.0,350.0" fill="none" stroke="#F97316" stroke-width="3" stroke-linecap="round"/>
    <path d="M70.0,170.0 L73.6,179.9 L77.2,190.0 L80.8,200.3 L84.4,210.8 L88.1,221.5 L91.7,232.5 L95.3,243.7 L98.9,255.1 L102.5,266.8 L106.1,278.7 L109.7,290.8 L113.3,303.2 L116.9,315.9 L120.6,328.8 L124.2,342.0 L127.8,350.0 L131.4,350.0 L135.0,350.0 L138.6,350.0 L142.2,350.0 L145.8,350.0 L149.4,350.0 L153.1,350.0 L156.7,350.0 L160.3,350.0 L163.9,350.0 L167.5,350.0 L171.1,350.0 L174.7,350.0 L178.3,350.0 L181.9,350.0 L185.6,350.0 L189.2,350.0 L192.8,350.0 L196.4,350.0 L200.0,350.0 L203.6,350.0 L207.2,350.0 L210.8,350.0 L214.4,350.0 L218.1,350.0 L221.7,350.0 L225.3,350.0 L228.9,350.0 L232.5,350.0 L236.1,350.0 L239.7,350.0 L243.3,350.0 L246.9,350.0 L250.6,350.0 L254.2,350.0 L257.8,350.0 L261.4,350.0 L265.0,350.0 L268.6,350.0 L272.2,350.0 L275.8,350.0 L279.4,350.0 L283.1,350.0 L286.7,350.0 L290.3,350.0 L293.9,350.0 L297.5,350.0 L301.1,350.0 L304.7,350.0 L308.3,350.0 L311.9,350.0 L315.6,350.0 L319.2,350.0 L322.8,350.0 L326.4,350.0 L330.0,350.0 L333.6,350.0 L337.2,350.0 L340.8,350.0 L344.4,350.0 L348.1,350.0 L351.7,350.0 L355.3,350.0 L358.9,350.0 L362.5,350.0 L366.1,350.0 L369.7,350.0 L373.3,350.0 L376.9,350.0 L380.6,350.0 L384.2,350.0 L387.8,350.0 L391.4,350.0 L395.0,350.0 L398.6,350.0 L402.2,350.0 L405.8,350.0 L409.4,350.0 L413.1,350.0 L416.7,350.0 L420.3,350.0 L423.9,350.0 L427.5,350.0 L431.1,350.0 L434.7,350.0 L438.3,350.0 L441.9,350.0 L445.6,350.0 L449.2,350.0 L452.8,350.0 L456.4,350.0 L460.0,350.0 L463.6,350.0 L467.2,350.0 L470.8,350.0 L474.4,350.0 L478.1,350.0 L481.7,350.0 L485.3,350.0 L488.9,350.0 L492.5,350.0 L496.1,350.0 L499.7,350.0 L503.3,350.0 L506.9,350.0 L510.6,350.0 L514.2,350.0 L517.8,350.0 L521.4,350.0 L525.0,350.0 L528.6,350.0 L532.2,350.0 L535.8,350.0 L539.4,350.0 L543.1,350.0 L546.7,350.0 L550.3,350.0 L553.9,350.0 L557.5,350.0 L561.1,350.0 L564.7,350.0 L568.3,350.0 L571.9,350.0 L575.6,350.0 L579.2,350.0 L582.8,350.0 L586.4,350.0 L590.0,350.0" fill="none" stroke="#22D3EE" stroke-width="3.5" stroke-linecap="round" filter="url(#glow)"/>
  </g>

  <line x1="70" x2="70" y1="160" y2="350" stroke="#E2E8F0" stroke-opacity="0.5" stroke-width="1">
    <animate attributeName="x1" dur="14s" repeatCount="indefinite" keyTimes="0;0.06;0.58;1" values="70;70;590;590"/>
    <animate attributeName="x2" dur="14s" repeatCount="indefinite" keyTimes="0;0.06;0.58;1" values="70;70;590;590"/>
    <animate attributeName="opacity" dur="14s" repeatCount="indefinite" keyTimes="0;0.05;0.58;0.62;1" values="0;1;1;0;0"/>
  </line>

  <g opacity="0"><animate attributeName="opacity" dur="14s" repeatCount="indefinite" keyTimes="0;0.118;0.148;0.93;1" values="0;0;1;1;0"/>
    <circle cx="127.8" cy="350" r="6" fill="#22D3EE" filter="url(#glow)"/>
    <circle cx="127.8" cy="350" r="6" fill="none" stroke="#22D3EE" stroke-width="2">
      <animate attributeName="r" dur="1.8s" repeatCount="indefinite" values="6;22"/>
      <animate attributeName="stroke-opacity" dur="1.8s" repeatCount="indefinite" values="0.9;0"/>
    </circle>
    <rect x="139.8" y="306" width="186" height="28" rx="14" fill="#083344" stroke="#22D3EE" stroke-opacity="0.6"/>
    <text x="232.8" y="325" font-size="13" font-weight="700" fill="#67E8F9" text-anchor="middle">Adaptive: paid off, month 16</text>
  </g>

  <g opacity="0"><animate attributeName="opacity" dur="14s" repeatCount="indefinite" keyTimes="0;0.548;0.578;0.93;1" values="0;0;1;1;0"/>
    <circle cx="557.5" cy="350" r="5" fill="#F97316"/>
    <rect x="325.5" y="306" width="176" height="28" rx="14" fill="#2A1406" stroke="#F97316" stroke-opacity="0.6"/>
    <text x="413.5" y="325" font-size="13" font-weight="700" fill="#FDBA74" text-anchor="middle">Current: month 135</text>
  </g>

  <g font-size="12.5">
    <line x1="70" x2="92" y1="394" y2="394" stroke="#F97316" stroke-width="3" stroke-linecap="round"/>
    <text x="100" y="398" fill="#CBD5E1">Current habits: minimum payment</text>
    <line x1="320" x2="342" y1="394" y2="394" stroke="#22D3EE" stroke-width="3" stroke-linecap="round"/>
    <text x="350" y="398" fill="#CBD5E1">Adaptive plan: +$963.80/month to the card</text>
  </g>

  <g opacity="0"><animate attributeName="opacity" dur="14s" repeatCount="indefinite" keyTimes="0;0.620;0.650;0.93;1" values="0;0;1;1;0"/>
    <rect x="628" y="158" width="300" height="56" rx="12" fill="#0B1220" stroke="#22D3EE" stroke-opacity="0.45"/>
    <rect x="628" y="158" width="4" height="56" rx="2" fill="#22D3EE"/>
    <text x="648" y="185" font-size="22" font-weight="700" fill="#22D3EE">119 months sooner</text>
    <text x="648" y="203" font-size="12.5" fill="#94A3B8">credit card paid off</text>
  </g>

  <g opacity="0"><animate attributeName="opacity" dur="14s" repeatCount="indefinite" keyTimes="0;0.670;0.700;0.93;1" values="0;0;1;1;0"/>
    <rect x="628" y="224" width="300" height="56" rx="12" fill="#0B1220" stroke="#34D399" stroke-opacity="0.45"/>
    <rect x="628" y="224" width="4" height="56" rx="2" fill="#34D399"/>
    <text x="648" y="251" font-size="22" font-weight="700" fill="#34D399">$32,516 saved</text>
    <text x="648" y="269" font-size="12.5" fill="#94A3B8">in card interest</text>
  </g>

  <g opacity="0"><animate attributeName="opacity" dur="14s" repeatCount="indefinite" keyTimes="0;0.720;0.750;0.93;1" values="0;0;1;1;0"/>
    <rect x="628" y="290" width="300" height="56" rx="12" fill="#0B1220" stroke="#C084FC" stroke-opacity="0.45"/>
    <rect x="628" y="290" width="4" height="56" rx="2" fill="#C084FC"/>
    <text x="648" y="317" font-size="22" font-weight="700" fill="#C084FC">+$141,669</text>
    <text x="648" y="335" font-size="12.5" fill="#94A3B8">retirement balance at 67, same fund</text>
  </g>
  <g opacity="0"><animate attributeName="opacity" dur="14s" repeatCount="indefinite" keyTimes="0;0.770;0.800;0.93;1" values="0;0;1;1;0"/>
    <text x="778" y="378" font-size="12" fill="#64748B" text-anchor="middle">Allocation unchanged. Only the next dollar moves.</text>
  </g>
</svg>
